
<svg width="35" height="33" viewBox="0 0 35 33" fill="none" xmlns="http://www.w3.org/2000/svg">
  <path d="M33.013 1L19.5625 10.8191L21.9899 5.15316L33.013 1Z" fill="#E17726" stroke="#E17726" stroke-width="0.25" stroke-linecap="round" stroke-linejoin="round"/>
  <path d="M1.98975 1L15.3009 10.9056L13.0102 5.15316L1.98975 1Z" fill="#E27625" stroke="#E27625" stroke-width="0.25" stroke-linecap="round" stroke-linejoin="round"/>
  <path d="M28.2443 23.5439L24.7001 28.8854L32.2435 30.9224L34.4133 23.6738L28.2443 23.5439Z" fill="#E27625" stroke="#E27625" stroke-width="0.25" stroke-linecap="round" stroke-linejoin="round"/>
  <path d="M0.598633 23.6738L2.75605 30.9224L10.2863 28.8854L6.75452 23.5439L0.598633 23.6738Z" fill="#E27625" stroke="#E27625" stroke-width="0.25" stroke-linecap="round" stroke-linejoin="round"/>
  <path d="M9.87244 14.5144L7.8241 17.6379L15.281 17.9627L15.0345 9.9292L9.87244 14.5144Z" fill="#E27625" stroke="#E27625" stroke-width="0.25" stroke-linecap="round" stroke-linejoin="round"/>
  <path d="M25.128 14.5144L19.9138 9.84277L19.7539 17.9627L27.2108 17.6379L25.128 14.5144Z" fill="#E27625" stroke="#E27625" stroke-width="0.25" stroke-linecap="round" stroke-linejoin="round"/>
  <path d="M10.2866 28.8856L14.8144 26.7186L10.8931 23.7305L10.2866 28.8856Z" fill="#E27625" stroke="#E27625" stroke-width="0.25" stroke-linecap="round" stroke-linejoin="round"/>
  <path d="M20.186 26.7186L24.7004 28.8856L24.1073 23.7305L20.186 26.7186Z" fill="#E27625" stroke="#E27625" stroke-width="0.25" stroke-linecap="round" stroke-linejoin="round"/>
  <path d="M24.7004 28.8854L20.186 26.7183L20.545 29.5766L20.5052 30.8359L24.7004 28.8854Z" fill="#D5BFB2" stroke="#D5BFB2" stroke-width="0.25" stroke-linecap="round" stroke-linejoin="round"/>
  <path d="M10.2866 28.8854L14.4951 30.8359L14.4686 29.5766L14.8144 26.7183L10.2866 28.8854Z" fill="#D5BFB2" stroke="#D5BFB2" stroke-width="0.25" stroke-linecap="round" stroke-linejoin="round"/>
  <path d="M14.5881 21.7762L10.7861 20.6901L13.3863 19.4741L14.5881 21.7762Z" fill="#233447" stroke="#233447" stroke-width="0.25" stroke-linecap="round" stroke-linejoin="round"/>
  <path d="M20.4118 21.7762L21.6136 19.4741L24.2271 20.6901L20.4118 21.7762Z" fill="#233447" stroke="#233447" stroke-width="0.25" stroke-linecap="round" stroke-linejoin="round"/>
  <path d="M10.2863 28.8854L10.9193 23.5439L6.75452 23.6738L10.2863 28.8854Z" fill="#CC6228" stroke="#CC6228" stroke-width="0.25" stroke-linecap="round" stroke-linejoin="round"/>
  <path d="M24.0811 23.5439L24.7008 28.8854L28.2447 23.6738L24.0811 23.5439Z" fill="#CC6228" stroke="#CC6228" stroke-width="0.25" stroke-linecap="round" stroke-linejoin="round"/>
  <path d="M27.2112 17.6377L19.7543 17.9625L20.4128 21.7761L21.6147 19.474L24.2282 20.69L27.2112 17.6377Z" fill="#CC6228" stroke="#CC6228" stroke-width="0.25" stroke-linecap="round" stroke-linejoin="round"/>
  <path d="M10.7864 20.69L13.3867 19.474L14.5885 21.7761L15.2603 17.9625L7.8241 17.6377L10.7864 20.69Z" fill="#CC6228" stroke="#CC6228" stroke-width="0.25" stroke-linecap="round" stroke-linejoin="round"/>
  <path d="M7.82422 17.6377L10.8931 23.7305L10.7864 20.69L7.82422 17.6377Z" fill="#E27525" stroke="#E27525" stroke-width="0.25" stroke-linecap="round" stroke-linejoin="round"/>
  <path d="M24.2281 20.69L24.1082 23.7305L27.2113 17.6377L24.2281 20.69Z" fill="#E27525" stroke="#E27525" stroke-width="0.25" stroke-linecap="round" stroke-linejoin="round"/>
  <path d="M15.2602 17.9624L14.5884 21.776L15.4268 26.3179L15.613 20.4299L15.2602 17.9624Z" fill="#E27525" stroke="#E27525" stroke-width="0.25" stroke-linecap="round" stroke-linejoin="round"/>
  <path d="M19.7538 17.9624L19.4141 20.4166L19.5739 26.3179L20.4123 21.776L19.7538 17.9624Z" fill="#E27525" stroke="#E27525" stroke-width="0.25" stroke-linecap="round" stroke-linejoin="round"/>
  <path d="M20.4121 21.776L19.5737 26.3179L20.1853 26.7186L24.1079 23.7305L24.2279 20.69L20.4121 21.776Z" fill="#F5841F" stroke="#F5841F" stroke-width="0.25" stroke-linecap="round" stroke-linejoin="round"/>
  <path d="M10.7861 20.69L10.8928 23.7305L14.8141 26.7186L15.4257 26.3179L14.5873 21.776L10.7861 20.69Z" fill="#F5841F" stroke="#F5841F" stroke-width="0.25" stroke-linecap="round" stroke-linejoin="round"/>
  <path d="M20.5047 30.8358L20.5445 29.5765L20.2048 29.2949H14.7949L14.4685 29.5765L14.4951 30.8358L10.2866 28.8853L11.6481 30.0149L14.7417 32.0983H20.2447L23.3516 30.0149L24.6998 28.8853L20.5047 30.8358Z" fill="#C0AC9D" stroke="#C0AC9D" stroke-width="0.25" stroke-linecap="round" stroke-linejoin="round"/>
  <path d="M20.1851 26.7184L19.5735 26.3177H15.4264L14.8148 26.7184L14.469 29.5767L14.7954 29.2951H20.2053L20.545 29.5767L20.1851 26.7184Z" fill="#161616" stroke="#161616" stroke-width="0.25" stroke-linecap="round" stroke-linejoin="round"/>
  <path d="M33.6185 11.4162L34.7672 6.10782L33.0134 1L20.1851 10.4749L25.1281 14.5144L32.0433 16.4915L33.5654 14.7354L32.8936 14.254L33.9623 13.305L33.1573 12.6766L34.2259 11.8813L33.6185 11.4162Z" fill="#763E1A" stroke="#763E1A" stroke-width="0.25" stroke-linecap="round" stroke-linejoin="round"/>
  <path d="M0.232422 6.10782L1.39452 11.4162L0.760513 11.8813L1.84242 12.6766L1.03742 13.305L2.10597 14.254L1.43418 14.7354L2.9429 16.4915L9.87141 14.5144L14.8144 10.4749L1.98609 1L0.232422 6.10782Z" fill="#763E1A" stroke="#763E1A" stroke-width="0.25" stroke-linecap="round" stroke-linejoin="round"/>
  <path d="M32.0432 16.4915L25.128 14.5144L27.2107 17.6379L24.1077 23.7307L28.2444 23.6739H34.4135L32.0432 16.4915Z" fill="#F5841F" stroke="#F5841F" stroke-width="0.25" stroke-linecap="round" stroke-linejoin="round"/>
  <path d="M9.87196 14.5144L2.94346 16.4915L0.598633 23.6739H6.75452L10.8912 23.7307L7.80154 17.6379L9.87196 14.5144Z" fill="#F5841F" stroke="#F5841F" stroke-width="0.25" stroke-linecap="round" stroke-linejoin="round"/>
  <path d="M19.7537 17.9625L20.1863 10.4749L22.0093 5.15308H12.9904L14.8134 10.4749L15.2594 17.9625L15.4192 20.4433L15.4326 26.3179H19.5797L19.6064 20.4433L19.7537 17.9625Z" fill="#F5841F" stroke="#F5841F" stroke-width="0.25" stroke-linecap="round" stroke-linejoin="round"/>
</svg>
