
<svg width="30" height="30" viewBox="0 0 30 30" fill="none" xmlns="http://www.w3.org/2000/svg">
  <path d="M26.2931 0H3.70687C1.65979 0 0 1.65979 0 3.70687V26.2931C0 28.3402 1.65979 30 3.70687 30H26.2931C28.3402 30 30 28.3402 30 26.2931V3.70687C30 1.65979 28.3402 0 26.2931 0Z" fill="black"/>
  <path d="M15.0004 26.5908C8.49847 26.5908 3.22681 21.3191 3.22681 14.8172C3.22681 8.31527 8.49847 3.04361 15.0004 3.04361C21.5023 3.04361 26.7739 8.31527 26.7739 14.8172C26.7739 21.3191 21.5023 26.5908 15.0004 26.5908ZM8.67607 19.9661H12.6358V15.8815H8.67607V19.9661ZM12.7639 8.64136H8.80414V12.7259H12.7639V8.64136ZM21.0994 19.9661V15.8815H17.1397V19.9661H21.0994ZM21.0994 8.64136H17.1397V12.7259H21.0994V8.64136Z" fill="white"/>
</svg>
